<?xml version="1.0" standalone="no"?>
<!DOCTYPE svg PUBLIC "-//W3C//DTD SVG 20010904//EN"
 "http://www.w3.org/TR/2001/REC-SVG-20010904/DTD/svg10.dtd">
<svg version="1.0" xmlns="http://www.w3.org/2000/svg"
 width="16.000000pt" height="16.000000pt" viewBox="0 0 16.000000 16.000000"
 preserveAspectRatio="xMidYMid meet">
<metadata>
Created by potrace 1.11, written by Peter Selinger 2001-2013
</metadata>
<g transform="translate(0.000000,16.000000) scale(0.002500,-0.002500)"
fill="#000000" stroke="none">
<path d="M1907 5534 c-1 -1 -36 -4 -77 -8 -304 -26 -497 -105 -591 -242 -29
-43 -93 -184 -83 -184 3 0 1 -8 -5 -17 -12 -23 -39 -188 -45 -278 -3 -38 -6
-257 -7 -485 -2 -448 -7 -515 -55 -648 -47 -132 -148 -212 -307 -246 -97 -21
-132 -24 -274 -25 l-123 -1 0 -175 0 -175 123 -1 c67 0 136 -2 152 -4 133 -17
172 -27 252 -67 106 -51 165 -136 204 -290 22 -88 21 -47 33 -853 2 -143 7
-274 10 -292 21 -125 29 -166 48 -223 63 -194 186 -305 403 -363 61 -16 81
-20 170 -33 28 -3 59 -8 70 -11 11 -2 120 -7 243 -10 l222 -6 0 177 0 176
-150 1 c-82 1 -153 2 -157 3 -5 1 -35 6 -68 10 -158 21 -243 72 -288 173 -48
108 -55 189 -57 663 -1 239 -3 455 -5 480 -12 119 -15 142 -29 202 -31 133
-86 236 -161 301 -41 35 -152 95 -218 117 l-69 23 79 27 c104 35 166 72 233
140 96 97 146 238 165 465 2 22 4 236 5 475 1 452 8 543 47 653 43 122 152
182 368 202 17 1 92 3 168 4 l137 1 0 176 0 175 -180 -2 c-99 -1 -181 -3 -183
-5z"/>
<path d="M4150 5366 l0 -176 138 -1 c138 -1 160 -2 242 -12 65 -9 166 -42 204
-68 47 -32 83 -94 107 -185 19 -68 22 -113 25 -334 10 -661 13 -797 17 -820 2
-14 8 -45 11 -70 21 -133 90 -267 175 -340 48 -42 164 -104 216 -115 55 -12
67 -17 60 -23 -3 -3 -13 -7 -21 -8 -34 -5 -152 -58 -199 -89 -58 -38 -123
-104 -153 -155 -33 -57 -72 -184 -87 -288 -9 -69 -14 -222 -15 -537 -1 -242
-3 -453 -5 -470 -2 -16 -6 -53 -9 -81 -3 -27 -14 -78 -25 -113 -54 -172 -151
-218 -488 -228 l-193 -6 0 -175 0 -175 218 6 c247 7 280 10 415 38 160 32 268
80 345 153 70 65 137 210 161 346 6 36 14 79 17 95 3 17 8 165 10 330 8 629
12 728 29 805 24 108 76 211 128 253 38 31 133 89 140 85 1 -1 35 7 74 16 82
20 119 24 286 25 l117 1 0 175 0 175 -97 0 c-237 1 -364 24 -469 85 -85 50
-149 154 -180 295 -17 77 -19 146 -28 800 -2 162 -6 304 -9 315 -2 11 -8 42
-11 68 -24 163 -91 313 -177 394 -71 67 -259 138 -414 157 -27 4 -66 9 -85 12
-19 2 -133 7 -252 11 l-218 6 0 -177z"/>
<path d="M4710 3668 c-150 -118 -350 -231 -490 -277 -107 -35 -215 -50 -335
-46 -172 5 -294 36 -625 160 -189 71 -333 118 -395 130 -265 51 -472 42 -695
-31 -109 -36 -278 -123 -410 -212 l-115 -77 -3 -223 -2 -223 82 64 c143 111
347 233 434 260 192 58 218 62 364 62 96 -1 128 -4 215 -20 83 -16 245 -69
455 -148 341 -128 478 -158 705 -153 207 5 356 44 560 147 66 33 167 93 225
133 l105 72 3 217 c1 119 -1 217 -5 217 -5 0 -37 -23 -73 -52z"/>
</g>
</svg>
